<?xml version="1.0" encoding="UTF-8"?>
<svg viewBox="0 0 141.09375 162.3125" xmlns="http://www.w3.org/2000/svg">
 <defs>
  <linearGradient id="a" x1="-248.32" x2="-217.63" gradientUnits="userSpaceOnUse">
   <stop stop-color="#d3d7cf" offset="0"/>
   <stop stop-color="#eeeeec" offset=".11792"/>
   <stop stop-color="#555753" offset="1"/>
  </linearGradient>
 </defs>
 <g transform="translate(-446.6 -588.35)">
  <path d="m586.19 722.59-46.029 26.575v-53.15l46.029-26.575v53.15z" fill="#364e59"/>
  <path d="m448.1 625.15 46.029-26.575 15.343 26.575-46.029 26.575-15.343-26.575z" fill="#555753"/>
  <path d="m463.45 634 46.029-26.575 15.343 26.575-46.029 26.575-15.343-26.575z" fill="#555753"/>
  <path d="m478.79 642.86 46.029-26.575 15.343 26.575-46.029 26.575-15.343-26.575z" fill="#555753"/>
  <path d="m494.13 651.72 46.029-26.575 15.343 26.575-46.029 26.575-15.343-26.575z" fill="#555753"/>
  <path d="m509.47 660.58 46.029-26.575 15.343 26.575-46.029 26.575-15.343-26.575z" fill="#555753"/>
  <path d="m524.82 669.44 46.029-26.575 15.343 26.575-46.029 26.575-15.343-26.575z" fill="#555753"/>
  <path d="m448.11 625.16v17.688l-0.014 53.158 92.062 53.156 0.014-53.158-15.344-26.562v17.688h-0.0312l-15.312-26.562v17.719l-15.344-26.562v17.719l-15.344-26.594v17.719l-15.344-26.562v17.688h-0.0312l-15.312-26.531z" fill="#9eabb0"/>
  <path d="m570.85 749.16-15.343-8.8583v-35.433l15.343 8.8583v35.433z" fill="#babdb6"/>
  <path d="m570.85 749.16 15.343-8.8583v-35.433l-15.343 8.8583v35.433z" fill="#888a85"/>
  <path d="m540.11 696.07 45.75-26.5-0.25 3.75-45.625 25.75 0.125-3z" fill="#151819"/>
  <path d="m555.5 704.87 15.343-8.8583 15.343 8.8583-15.343 8.8583-15.343-8.8583z" fill="#eeeeec"/>
  <g transform="matrix(1 0 0 .80474 813 284.95)">
   <path d="m-246.33 381.95-2 138.92h0.0625c-1e-3 0.0254 0 0.048 0 0.0735 0 1.9181 3.4507 3.4797 7.6875 3.4797s7.6562-1.5615 7.6562-3.4797c0-0.15171-0.0208-0.29449-0.0625-0.44108l-2-138.55h-13.344l2 1e-5z" fill="url(#a)"/>
   <path transform="matrix(.75605 0 0 .59285 -58.505 581.95)" d="m-233.21-338.09c0 2.4462-3.4346 4.4291-7.6715 4.4291s-7.6715-1.983-7.6715-4.4291 3.4346-4.4291 7.6715-4.4291 7.6715 1.983 7.6715 4.4291z" fill="#eeeeec"/>
   <path transform="matrix(.52141 0 0 .40886 -115.02 520.56)" d="m-233.21-338.09c0 2.4462-3.4346 4.4291-7.6715 4.4291s-7.6715-1.983-7.6715-4.4291 3.4346-4.4291 7.6715-4.4291 7.6715 1.983 7.6715 4.4291z" fill="#888a85"/>
  </g>
  <path d="m463.45 634 46.029-26.575" fill="none" stroke="#000"/>
  <path d="m478.79 642.86 46.029-26.575" fill="none" stroke="#000"/>
  <path d="m494.13 651.72 46.029-26.575" fill="none" stroke="#000"/>
  <path d="m510.24 660.69-0.76248-0.1122 46.029-26.575" fill="none" stroke="#000"/>
  <path d="m525.49 668.94 38.016-21.22" fill="none" stroke="#000"/>
  <path d="m448.49 626.44 14.959 25.28v-17.717l15.343 26.575v-17.717l15.343 26.575v-17.717l15.343 26.575v-17.717l15.343 26.575v-17.717l15.343 26.575" fill="none" stroke="#000" stroke-linejoin="bevel"/>
  <g transform="matrix(.16 0 0 .15593 450.89 650.49)" fill="#0084c8">
   <path d="m184.12 131.1v53.15l30.686 17.717v-53.15l-30.686-17.717z"/>
   <path d="m214.8 148.82v53.15" stroke="#fff" stroke-width="1.5827"/>
  </g>
  <g transform="matrix(.16 0 0 .15593 445.98 647.73)" fill="#0084c8">
   <path d="m184.12 131.1v53.15l30.686 17.717v-53.15l-30.686-17.717z"/>
   <path d="m214.8 148.82v53.15" stroke="#fff" stroke-width="1.5827"/>
  </g>
  <g transform="matrix(.16 0 0 .15593 480.35 667.31)" fill="#0084c8">
   <path d="m184.12 131.1v53.15l30.686 17.717v-53.15l-30.686-17.717z"/>
   <path d="m214.8 148.82v53.15" stroke="#fff" stroke-width="1.5827"/>
  </g>
  <g transform="matrix(.16 0 0 .15593 475.44 664.54)" fill="#0084c8">
   <path d="m184.12 131.1v53.15l30.686 17.717v-53.15l-30.686-17.717z"/>
   <path d="m214.8 148.82v53.15" stroke="#fff" stroke-width="1.5827"/>
  </g>
  <path d="m478.79 714.18-1e-5 -28.961 30.686 17.266v28.961l-30.686-17.266z" fill="#555753"/>
  <path d="m494.33 694.16-0.19548 28.65" fill="none" stroke="#000" stroke-width=".25"/>
  <path d="m494.33 694.16-0.19548 28.65" fill="none" stroke="#000" stroke-width=".25"/>
  <path d="m514.62 722.8v10.63l6.1372 3.5433v-10.63l-6.1372-3.5433z" fill="#2e3436"/>
  <path d="m522.12 724.17v2.126l-3.9823 2.0135 0.3-2.0135 3.6823-2.126z" fill="#555753"/>
  <path d="m522.12 724.17-3.9823 4.076-7.2146-4.252 3.8323-4.076 7.3646 4.252z" fill="#babdb6"/>
  <path d="m572.38 589.85c-3.2032 0-5.7812 0.95797-5.7812 2.125 0 0.14588 0.0165 0.26869 0.0937 0.40625l-0.96875 53.406-2.5625 1.5-7.6562-13.281-7.6562 4.4375-7.6875-13.312-7.6875 4.4375-7.6562-13.281-7.6562 4.4375-7.6875-13.312-7.6875 4.4375-7.6562-13.281-46.031 26.562 0.0312 0.0625-0.0312 70.812 92.062 53.156 15.344-8.875 15.344 8.875 15.344-8.875v-70.844l-7-12.125-1.1562-64.906c0.0902-0.14806 0.15625-0.27955 0.15625-0.4375 0-1.167-2.6092-2.125-5.8125-2.125h5e-5z" fill="none" stroke="#2e3436" stroke-linejoin="bevel" stroke-width="3"/>
  <path d="m448.11 625.16v17.688l-0.014 3.158 92.062 53.156 0.014-3.158-15.344-26.562v17.688h-0.0312l-15.312-26.562v17.719l-15.344-26.562v17.719l-15.344-26.594v17.719l-15.344-26.562v17.688h-0.0312l-15.312-26.531h-1e-4z" fill="#2e3436"/>
 </g>
</svg>
