<?xml version="1.0" encoding="utf-8"?>
<!-- Generator: Moho 12.5 build 22438 -->
<!DOCTYPE svg PUBLIC "-//W3C//DTD SVG 1.1//EN" "http://www.w3.org/Graphics/SVG/1.1/DTD/svg11.dtd">
<svg version="1.1" id="Frame_0" xmlns="http://www.w3.org/2000/svg" xmlns:xlink="http://www.w3.org/1999/xlink" width="1280px" height="720px">
<g id="Layer_4">
<path fill="#dbad55" fill-rule="evenodd" stroke="#dbad55" stroke-width="1" stroke-linecap="round" stroke-linejoin="round" d="M 965.319 129.235 C 965.277 129.238 542.533 154.659 542.491 154.661 C 542.491 154.711 542.961 649.480 542.961 649.529 C 543.002 649.522 958.686 576.555 958.727 576.548 C 958.728 576.503 965.318 129.280 965.319 129.235 Z"/>
<path fill="#c69030" fill-rule="evenodd" stroke="#c69030" stroke-width="1" stroke-linecap="round" stroke-linejoin="round" d="M 542.201 154.373 C 542.182 154.369 359.965 113.260 359.946 113.256 C 359.947 113.297 368.425 529.286 368.426 529.328 C 368.444 529.340 542.732 649.573 542.750 649.586 C 542.750 649.536 542.201 154.423 542.201 154.373 Z"/>
<path fill="#c69030" fill-rule="evenodd" stroke="#c69030" stroke-width="1" stroke-linecap="round" stroke-linejoin="round" d="M 909.214 201.146 C 909.183 201.149 606.163 224.116 606.133 224.118 C 606.133 224.154 606.874 575.331 606.874 575.366 C 606.904 575.361 908.442 529.426 908.472 529.422 C 908.472 529.389 909.213 201.179 909.214 201.146 Z"/>
<path fill="#b3802f" fill-rule="evenodd" stroke="#b3802f" stroke-width="1" stroke-linecap="round" stroke-linejoin="round" d="M 511.889 221.314 C 511.876 221.310 384.145 187.728 384.132 187.725 C 384.132 187.755 390.183 488.799 390.184 488.830 C 390.196 488.837 511.731 565.790 511.743 565.798 C 511.743 565.763 511.889 221.348 511.889 221.314 Z"/>
<path fill="none" stroke="#a07026" stroke-width="4" stroke-linecap="round" stroke-linejoin="round" d="M 963.907 136.121 C 823.515 144.544 683.123 152.967 542.731 161.390 "/>
<path fill="none" stroke="#a07026" stroke-width="4" stroke-linecap="round" stroke-linejoin="round" d="M 962.975 196.100 C 823.036 207.056 683.097 218.011 543.158 228.967 "/>
<path fill="none" stroke="#a07026" stroke-width="4" stroke-linecap="round" stroke-linejoin="round" d="M 958.337 520.653 C 820.089 542.293 681.841 563.933 543.594 585.574 "/>
<path fill="none" stroke="#a07026" stroke-width="4" stroke-linecap="round" stroke-linejoin="round" d="M 542.868 161.180 C 542.918 323.625 542.968 486.070 543.018 648.516 "/>
<path fill="none" stroke="#a07026" stroke-width="4" stroke-linecap="round" stroke-linejoin="round" d="M 607.459 224.188 C 607.548 341.381 607.637 458.574 607.726 575.767 "/>
<path fill="none" stroke="#a07026" stroke-width="4" stroke-linecap="round" stroke-linejoin="round" d="M 628.561 222.385 C 628.650 339.036 628.739 455.688 628.828 572.339 "/>
<path fill="none" stroke="#a07026" stroke-width="4" stroke-linecap="round" stroke-linejoin="round" d="M 679.524 218.946 C 679.821 333.874 680.119 448.802 680.417 563.730 "/>
<path fill="none" stroke="#a07026" stroke-width="4" stroke-linecap="round" stroke-linejoin="round" d="M 731.280 214.489 C 731.520 328.291 731.761 442.093 732.001 555.895 "/>
<path fill="none" stroke="#a07026" stroke-width="4" stroke-linecap="round" stroke-linejoin="round" d="M 783.873 210.754 C 784.170 322.789 784.468 434.824 784.765 546.858 "/>
<path fill="none" stroke="#a07026" stroke-width="4" stroke-linecap="round" stroke-linejoin="round" d="M 836.071 207.365 C 836.368 317.689 836.666 428.014 836.964 538.338 "/>
<path fill="none" stroke="#a07026" stroke-width="4" stroke-linecap="round" stroke-linejoin="round" d="M 888.093 203.801 C 888.295 312.948 888.497 422.096 888.699 531.243 "/>
<path fill="none" stroke="#a07026" stroke-width="4" stroke-linecap="round" stroke-linejoin="round" d="M 907.784 201.261 C 907.875 310.309 907.965 419.358 908.056 528.406 "/>
<path fill="none" stroke="#a07026" stroke-width="4" stroke-linecap="round" stroke-linejoin="round" d="M 543.220 161.744 C 482.630 148.182 422.039 134.619 361.449 121.057 "/>
<path fill="none" stroke="#a07026" stroke-width="4" stroke-linecap="round" stroke-linejoin="round" d="M 542.702 228.564 C 482.631 212.920 422.559 197.276 362.488 181.633 "/>
<path fill="none" stroke="#a07026" stroke-width="4" stroke-linecap="round" stroke-linejoin="round" d="M 543.213 585.716 C 485.038 548.813 426.863 511.910 368.688 475.007 "/>
<path fill="none" stroke="#a07026" stroke-width="4" stroke-linecap="round" stroke-linejoin="round" d="M 511.772 565.637 C 511.895 450.678 512.019 335.719 512.142 220.761 "/>
<path fill="none" stroke="#a07026" stroke-width="4" stroke-linecap="round" stroke-linejoin="round" d="M 500.189 558.545 C 500.364 445.034 500.539 331.522 500.714 218.011 "/>
<path fill="none" stroke="#a07026" stroke-width="4" stroke-linecap="round" stroke-linejoin="round" d="M 479.785 545.120 C 479.573 434.543 479.360 323.967 479.148 213.390 "/>
<path fill="none" stroke="#a07026" stroke-width="4" stroke-linecap="round" stroke-linejoin="round" d="M 459.721 532.485 C 459.204 423.985 458.687 315.485 458.170 206.985 "/>
<path fill="none" stroke="#a07026" stroke-width="4" stroke-linecap="round" stroke-linejoin="round" d="M 438.723 518.572 C 437.844 413.238 436.965 307.902 436.086 202.568 "/>
<path fill="none" stroke="#a07026" stroke-width="4" stroke-linecap="round" stroke-linejoin="round" d="M 419.210 506.071 C 417.845 402.734 416.480 299.396 415.116 196.060 "/>
<path fill="none" stroke="#a07026" stroke-width="4" stroke-linecap="round" stroke-linejoin="round" d="M 398.602 493.918 C 396.947 392.691 395.291 291.464 393.635 190.238 "/>
<path fill="none" stroke="#a07026" stroke-width="4" stroke-linecap="round" stroke-linejoin="round" d="M 390.784 489.210 C 388.877 388.918 386.969 288.625 385.062 188.333 "/>
<path fill="#f2d086" fill-rule="evenodd" stroke="#f2d086" stroke-width="1" stroke-linecap="round" stroke-linejoin="round" d="M 721.339 92.479 C 721.303 92.481 360.047 113.209 360.010 113.212 C 360.029 113.216 542.590 153.763 542.608 153.767 C 542.650 153.765 965.344 128.934 965.386 128.932 C 965.362 128.928 721.364 92.483 721.339 92.479 Z"/>
<path fill="#dbad55" fill-rule="evenodd" stroke="none" d="M 607.908 224.118 C 607.908 224.118 607.908 224.118 607.908 224.118 C 620.518 223.126 637.322 221.678 649.942 220.813 C 649.942 220.813 907.818 484.367 907.843 484.393 C 907.814 497.644 907.745 528.557 907.745 528.562 C 896.712 530.256 870.971 534.207 870.968 534.208 C 792.050 455.439 607.934 271.671 607.908 271.645 C 607.908 257.387 607.908 224.122 607.908 224.118 C 607.908 224.118 607.908 224.118 607.908 224.118 Z"/>
<path fill="none" stroke="#ab7930" stroke-width="4" stroke-linecap="round" stroke-linejoin="round" d="M 907.843 484.393 C 907.843 484.393 907.843 484.393 907.843 484.393 C 907.818 484.367 649.942 220.813 649.942 220.813 C 637.322 221.678 620.518 223.126 607.908 224.118 C 607.908 224.118 607.908 224.118 607.908 224.118 C 607.908 224.122 607.908 257.387 607.908 271.645 C 607.908 271.645 607.908 271.645 607.908 271.645 C 607.934 271.671 792.050 455.439 870.968 534.208 C 870.968 534.208 870.968 534.208 870.968 534.208 C 870.971 534.207 896.712 530.256 907.745 528.562 C 907.745 528.562 907.745 528.562 907.745 528.562 C 907.745 528.557 907.814 497.644 907.843 484.393 M 607.908 224.118 C 607.908 224.118 607.908 224.118 607.908 224.118 "/>
<path fill="#c69030" fill-rule="evenodd" stroke="none" d="M 384.801 187.125 C 384.801 187.125 384.801 187.125 384.801 187.125 C 390.581 188.589 398.242 190.735 404.068 192.006 C 404.068 192.006 512.033 483.915 512.043 483.944 C 512.014 508.610 511.946 566.155 511.946 566.163 C 506.984 563.012 495.408 555.661 495.407 555.660 C 462.517 460.789 385.785 239.456 385.775 239.424 C 385.483 223.735 384.802 187.130 384.801 187.125 C 384.801 187.125 384.801 187.125 384.801 187.125 Z"/>
<path fill="none" stroke="#a5752b" stroke-width="3" stroke-linecap="round" stroke-linejoin="round" d="M 512.043 483.944 C 512.043 483.944 512.043 483.944 512.043 483.944 C 512.033 483.915 404.068 192.006 404.068 192.006 C 398.242 190.735 390.581 188.589 384.801 187.125 C 384.801 187.125 384.801 187.125 384.801 187.125 C 384.802 187.130 385.483 223.735 385.775 239.424 C 385.775 239.424 385.775 239.424 385.775 239.424 C 385.785 239.456 462.517 460.789 495.407 555.660 C 495.407 555.660 495.407 555.660 495.407 555.660 C 495.408 555.661 506.984 563.012 511.946 566.163 C 511.946 566.163 511.946 566.163 511.946 566.163 C 511.946 566.155 512.014 508.610 512.043 483.944 M 384.801 187.125 C 384.801 187.125 384.801 187.125 384.801 187.125 "/>
<path fill="#c38f2c" fill-rule="evenodd" stroke="#c38f2c" stroke-width="1" stroke-linecap="round" stroke-linejoin="round" d="M 731.986 101.325 C 731.981 101.326 688.189 116.720 688.185 116.722 C 688.201 116.722 846.212 120.369 846.228 120.369 C 846.216 120.367 731.997 101.327 731.986 101.325 Z"/>
<path fill="#deac49" fill-rule="evenodd" stroke="#deac49" stroke-width="1" stroke-linecap="round" stroke-linejoin="round" d="M 732.965 104.424 C 732.975 104.426 825.592 119.898 825.601 119.900 C 825.589 119.900 699.428 117.003 699.416 117.003 C 699.419 117.002 732.962 104.426 732.965 104.424 Z"/>
<path fill="#c68f32" fill-rule="evenodd" stroke="#c68f32" stroke-width="1" stroke-linecap="round" stroke-linejoin="round" d="M 620.752 115.530 C 620.736 115.530 462.084 112.058 462.069 112.058 C 462.090 112.056 673.358 99.503 673.379 99.502 C 673.374 99.503 620.757 115.529 620.752 115.530 Z"/>
<path fill="#deac4b" fill-rule="evenodd" stroke="#deac4b" stroke-width="1" stroke-linecap="round" stroke-linejoin="round" d="M 620.766 115.543 C 620.754 115.543 506.724 113.072 506.713 113.072 C 506.728 113.071 652.711 105.857 652.725 105.856 C 652.722 105.857 620.769 115.542 620.766 115.543 Z"/>
<path fill="#c28c2c" fill-rule="evenodd" stroke="#c28c2c" stroke-width="1" stroke-linecap="round" stroke-linejoin="round" d="M 549.380 137.025 C 549.367 137.023 425.395 115.043 425.383 115.041 C 425.400 115.042 597.010 122.782 597.028 122.783 C 597.023 122.784 549.385 137.024 549.380 137.025 Z"/>
<path fill="#deac4b" fill-rule="evenodd" stroke="#deac4b" stroke-width="1" stroke-linecap="round" stroke-linejoin="round" d="M 549.388 137.046 C 549.379 137.045 454.973 120.320 454.964 120.318 C 454.977 120.319 586.829 125.848 586.842 125.848 C 586.838 125.849 549.392 137.045 549.388 137.046 Z"/>
<path fill="#c69030" fill-rule="evenodd" stroke="#c69030" stroke-width="1" stroke-linecap="round" stroke-linejoin="round" d="M 669.291 123.839 C 669.305 123.839 810.554 127.710 810.568 127.710 C 810.550 127.711 636.581 136.677 636.563 136.678 C 636.566 136.677 669.288 123.840 669.291 123.839 Z"/>
<path fill="#deac49" fill-rule="evenodd" stroke="#deac49" stroke-width="1" stroke-linecap="round" stroke-linejoin="round" d="M 669.498 127.254 C 669.506 127.254 750.415 130.827 750.423 130.828 C 750.413 130.828 651.059 135.991 651.049 135.992 C 651.051 135.991 669.496 127.255 669.498 127.254 Z"/>
</g>
</svg>
