<?xml version="1.0" encoding="UTF-8"?>
<svg enable-background="new 0 0 270.894 443.963" viewBox="0 0 270.894 443.963" xmlns="http://www.w3.org/2000/svg">
 <path d="m270.138,243.312c-2.634-25.421-15.766-47.33-32.704-60.83-9.115-7.265-20.351-11.723-30.088-18.314-5.902-.218-8.953-3.589-11.772-5.887-2.49-2.027-3.956-3.005-5.234-5.233-4.412-7.688-5.398-18.836-4.579-30.088 1.512-20.75 6.622-41.293 15.699-51.019 10.172-.531 7.896-14.016 5.232-20.931-1.586-4.118-5.34-9.858-8.503-15.698-2.771-5.115-5.899-11.369-9.157-15.044-1.74-1.961-4.714-3.603-7.194-5.887s-4.677-5.385-6.542-6.541c-2.776-1.722-7.594-2.319-11.772-3.271-1.883-.428-3.533-2.38-4.579-2.616-6.354-1.435-14.921-1.556-23.547,0-13.974,2.519-26.234,12.138-34.667,24.201-4.068,5.82-6.225,12.158-9.811,19.623-2.543,5.293-10.129,13.444-9.811,19.622 .223,4.331 3.444,4.921 3.925,9.812 16.644,7.13 19.203,29.25 20.276,52.327 .396,8.507.436,17.575-1.962,23.547-1.541,3.839-5.78,6.044-5.887,9.812-17.616,5.712-33.835,12.822-45.786,24.201-8.028-6.58-19.258-9.958-23.547-20.277-4.35-1.722-6.837-4.849-11.12-4.579-8.353.529-14.144,11.156-17.008,17.662 1.524,5.025 6.595,8.018 9.811,12.428 7.988,10.949 15.75,29.302 9.812,46.44 .519,1.443.646,2.967 0,5.887-2.692,2.759-1.856,9.046-3.925,12.428 1.919,4.317.595,9.14 1.308,14.389 2.314,17.029 10.816,31.435 18.314,43.824 3.404,5.626 6.619,9.742 10.465,14.391 6.03,7.284 11.628,12.588 18.314,18.969 7.57,7.223 14.268,14.522 22.894,19.622 1.228,1.247-.388,1.184 0,3.27 3.002.27 5.44,1.101 7.195,2.617 1.6,1.543-.978,1.217-.654,3.271 2.064-.319 2.31,1.18 4.579.654-1.1,3.416 3.797,3.213 5.887,5.233-2.226,2.788 4.346,2.368.654,4.578 1.237.726 3.09.834 4.579,1.308 3.362,7.104 8.453,12.478 8.503,22.894 .322,2.067-3.246.243-2.616,2.616-.57,1.343 3.328,1.305 1.308,1.962-11.696-.932-30.455,12.006-15.698,21.585 17.998,7.447 50.828,9.662 75.22,5.887 10.118-1.565 19.074-5.689 24.201-11.12 4.101-12.51-7.239-14.313-15.044-17.006-.831-3.524-2.922-6.291 0-8.503-1.723.197-2.146-.906-1.961-2.616-.654-7.412 3.281-10.235 4.578-15.698 1.439-.958 2.808-1.987 5.232-1.962 .946-2.473-1.797-1.256-1.309-3.27 6.146-7.809 15.054-12.855 20.277-21.585 .858-.668 2.41-.643 3.27-1.309 17.605-20.552 36.485-39.825 48.403-66.063 2.172-8.921 5.335-15.354 6.54-24.2 1.219-8.943.774-18.042.001-25.513zm-92.622-188.591c-6.866-.867-13.361-2.03-20.314-1.662-6.116.324-12.23.616-18.338,1.085-6.95.535-14.076.846-20.883,2.421-3.007.695-6.08,1.856-9.199,1.899-14.105.194 4.539-23.452 7.84-27.587 11.84-14.832 33.578-15.983 49.921-8.093 .434.209.715.5.871.827 4.12,1.974 6.757,5.785 8.668,9.818 2.3,4.854 7.264,7.533 9.786,12.373 1.055,2.023 3.756,6.708 1.594,8.869-2.207,2.206-7.497.359-9.946.05z" fill="#ffdfa9" fill-rule="evenodd"/>
 <path d="m108.58 33.826c0.131 3.847-4.134 8.941-4.579 14.39-1.542-5.257 2.866-10.209 4.579-14.39z" fill-rule="evenodd"/>
 <path d="m196.88,50.178c.658.021 3.56,11.3-1.307,11.12 1.801-2.341 1.276-7.009 1.307-11.12z" fill-rule="evenodd"/>
 <path d="m203.422,59.335c3.096,3.651-5.394,9.58-9.812,7.849 .028-2.435 1.747-.373 2.615-.654 3.044-.985 5.692-4.231 7.197-7.195z" fill-rule="evenodd"/>
 <path d="m181.84 103.81c-7.955-0.917-15.438 1.924-20.932 1.309 3.003-1.261 9.041-2.381 13.735-2.616 2.334-0.117 6.108-1.037 7.197 1.307z" fill-rule="evenodd"/>
 <path d="m179.22,107.083c-5.635-.726-10.701,2.229-15.045.654 2.036-1.026 5.386-1.06 8.505-1.309 2.14-.17 5.712-2.318 6.54.655z" fill-rule="evenodd"/>
 <path d="m177.258,109.045c.09,3.143-4.524,1.582-6.541,2.617 3.785,1.724 8.996-.896 11.772.654-1.115,5.162-8.131,5.357-15.043,5.232-6.553-.118-15.364-.252-24.2-.654-8.008-.363-16.757.106-22.894-.654-4.107-.509-8.524-1.716-9.812-4.579 3.105-1.738 6.457.868 9.812,1.308 13.324,1.748 29.583.539 44.479,1.309 1.608-.571 1.463-2.897 3.923-2.617 .114-1.859-4.278.791-3.271-1.962 2.753-1.388 7.969-.317 11.775-.654z" fill-rule="evenodd"/>
 <path d="m179.22,119.511c-2.811,1.603-10.394.458-15.697,1.309 3.407-1.923 11.217-2.604 15.697-1.309z" fill-rule="evenodd"/>
 <path d="m18.314,166.605c-.124,5.763-3.511,8.262-8.503,9.157-.667-.859-.641-2.411-1.308-3.27 2.512-2.867 4.821-9.386 9.811-5.887z" fill-rule="evenodd"/>
 <path d="m232.201,190.153c.448,2.192-1.098,2.391-2.616,2.616 .675,1.237 5.093.149 2.616,2.616 1.611-.085 3.151-.099 3.924.654-.984,1.85-3.39,2.279-5.886,2.617 .554-3.813-3.501-1.069-5.232-1.308 .915-1.265 3.106-1.254 3.27-3.271-2.107.291-3.543,1.253-5.887,1.308 3.55-1.463 4.319-5.709 9.811-5.232z" fill-rule="evenodd"/>
 <path d="m253.13 233.32c-4.96 1.364-9.446 3.199-15.044 3.926 2.351-3.319 10.026-1.312 11.119-5.888 1.988-0.026 4.306-0.381 3.925 1.962z" fill-rule="evenodd"/>
 <path d="m255.749,235.285c-4.388,4.989-13.449,5.302-21.585,6.541 4.771-2.205 11.283-2.67 16.352-4.578 1.516-.665 1.395-2.967 3.271-3.271 1.118-.03 1.693.485 1.962,1.308z" fill-rule="evenodd"/>
 <path d="m257.056,239.863c-1.318,2.824-4.82,3.465-7.849,4.579 1.605,2.255 5.114-1.28 6.542.654-5.222,5.682-15.89,5.913-25.51,7.194 5.92-2.583 14.391-2.616 20.276-5.233-6.584-2.863-13.969,1.269-21.585,1.309 7.415-2.832 17.658-2.837 23.547-7.194-.202-.888-1.639-.543-2.616-.654 .339-2.184 5.886-1.486 7.195-.655z" fill-rule="evenodd"/>
 <path d="m260.98,247.711c1.367-.275 1.732.449 2.617.654-2.086,3.366-6.153,4.749-10.466,5.888 .735,4.059 6.562-.394 6.541,1.962-11.072,9.106-37.795,7.649-52.327,9.157 1.736-2.579 6.445-1.08 10.465-1.309 6.281-.356 13.492-1.422 19.623-2.616 6.179-1.204 12.771-2.037 15.044-5.887-11.116.757-20.729,2.944-34.013,3.924-5.059.374-11.626,1.475-17.66,1.963-8.956.726-18.354.044-27.473.654-3.635.243-7.402,1.756-11.118,1.962-4.035.225-7.868-.898-11.773-.653-3.937.246-13.332,2.439-19.623,1.962-1.814-.138-2.951-1.322-4.579-1.309-2.227.021-4.322,1.179-6.541,1.309-4.231.246-8.765-1.111-13.082-1.309-12.388-.562-26.252,1.14-38.591,0-6.602-.609-13.673-2.204-19.623-3.271-5.747-1.029-13.891-1.222-15.698-7.194 5.385.311 11.728,3.812 17.66,4.579 2.39.309 4.856-.233 7.849,0 3.992.309 8.128,1.617 12.427,1.961 12.321.987 26.436,1.065 40.554.654 35.141-1.022 73.596-.593 105.308-4.578 2.889-.363 5.425-1.544 8.504-1.962 13.457-1.829 26.002-1.325 35.975-6.541z" fill-rule="evenodd"/>
 <path d="m208,312.466c5.916-2.804 17.511.069 22.893-3.271-6.732-.403-16.319,1.992-25.51,1.309 2.596-1.268 11.933-2.476 18.97-2.617-1.882-1.825-7.889.477-9.812-1.307 1.215-2.928 5.289-2.997 8.504-3.925-.584-1.387-4.576,1.293-5.887-.654 7.912-1.9 17.648-1.974 24.855-4.578-3.393-1.415-8.107,1.475-13.082.654 5.903-2.887-8.983-.083-11.12-1.309 14.742-1.828 27.232-5.909 39.899-9.812-1.914,3.1-3.469,6.562-7.849,7.195 .796,4.912.057,7.181-3.925,8.503 1.165,2.924 4.313-2.684 3.925.653-9.941,7.161-26.233,11.586-41.861,9.159zm15.698-7.848c-1.029.27-4.961.371-1.309.654 1.162.09 3.359.382 5.232-.654 .837.036.906.839 1.963.654 2.275-1.43 6.604-.809 8.503-2.616-3.444.456-11.036,1.084-14.389,1.962z" fill-rule="evenodd"/>
 <path d="m46.44,313.121c2.344-1.444 6.441.952 9.157,1.309-1.58.681-7.266-.128-9.157-1.309z" fill-rule="evenodd"/>
 <path d="m117.082,317.045c-10.194.136-18.822-.033-26.818-.654 1.722-1.395 9.226-.653 15.698-.653 4.192,0 9.072-1.071 11.12,1.307z" fill-rule="evenodd"/>
 <path d="m45.786,318.354c5.864.182 13.794,1.296 21.585.654-5.052,2.04-17.408,2.292-21.585-.654z" fill-rule="evenodd"/>
 <path d="m85.032,320.969c16.655-.966 31.58,2.13 49.71,0-1.233,1.936-4.817,1.779-7.195,1.963-10.834.834-30.157-1.679-42.515-1.963z" fill-rule="evenodd"/>
 <path d="m70.641 324.9c23.806 0.952 55.562 2.767 77.836 1.962-24.665 2.988-54.973 1.127-77.836-1.962z" fill-rule="evenodd"/>
 <path d="m116.427,413.85c2.02-.657-1.878-.619-1.308-1.962-.63-2.373 2.938-.549 2.616-2.616-.05-10.416-5.141-15.79-8.503-22.894-1.489-.474-3.342-.582-4.579-1.308 3.691-2.21-2.88-1.79-.654-4.578-2.089-2.021-6.986-1.817-5.887-5.233-2.269.525-2.515-.974-4.579-.654-.323-2.054 2.254-1.728.654-3.271-1.755-1.517-4.193-2.348-7.195-2.617-.388-2.086 1.228-2.022 0-3.27-8.626-5.1-15.323-12.399-22.894-19.622-6.686-6.381-12.284-11.685-18.314-18.969-3.847-4.648-7.061-8.765-10.465-14.391-7.499-12.39-16-26.795-18.314-43.824-.713-5.249.611-10.071-1.308-14.389 2.068-3.382 1.232-9.669 3.925-12.428 2.741-.779 1.167,2.756 2.616,3.271 3.398-2.825-2.931-4.275.654-6.542-.196-1.766-2.751-1.172-3.27-2.615 5.938-17.138-1.824-35.492-9.812-46.44-3.216-4.41-8.287-7.403-9.811-12.428 2.864-6.505 8.655-17.133 17.006-17.66 4.282-.271 6.77,2.857 11.12,4.579 4.289,10.318 15.519,13.697 23.547,20.277 11.951-11.379 28.17-18.489 45.786-24.201 .107-3.768 4.346-5.973 5.887-9.812 2.397-5.972 2.358-15.04 1.962-23.547-1.073-23.077-3.632-45.197-20.276-52.327-.48-4.89-3.702-5.481-3.925-9.812-.318-6.178 7.268-14.329 9.811-19.622 3.586-7.465 5.743-13.803 9.811-19.623 8.433-12.063 20.694-21.682 34.667-24.201 8.626-1.556 17.193-1.435 23.547,0 1.046.236 2.696,2.188 4.579,2.616 4.179.952 8.996,1.549 11.772,3.271 1.865,1.155 4.061,4.257 6.542,6.541s5.454,3.925 7.194,5.887c3.258,3.675 6.387,9.929 9.157,15.044 3.163,5.84 6.917,11.58 8.503,15.698 2.664,6.915 4.939,20.4-5.232,20.931-9.077,9.726-14.188,30.269-15.699,51.019-.819,11.251.167,22.4 4.579,30.088 1.278,2.228 2.744,3.206 5.234,5.233 2.819,2.297 5.87,5.668 11.772,5.887 9.737,6.592 20.973,11.05 30.088,18.314 16.938,13.5 30.07,35.408 32.704,60.83 .773,7.471 1.219,16.57 0,25.511-1.205,8.846-4.368,15.279-6.54,24.2-11.918,26.238-30.798,45.512-48.403,66.063-.859.666-2.411.641-3.27,1.309-5.224,8.729-14.131,13.776-20.277,21.585-.488,2.014 2.255.797 1.309,3.27-2.425-.025-3.793,1.004-5.232,1.962-1.297,5.463-5.232,8.286-4.578,15.698-.186,1.71.238,2.813 1.961,2.616-2.922,2.212-.831,4.979 0,8.503 7.805,2.692 19.145,4.496 15.044,17.006-5.127,5.431-14.083,9.555-24.201,11.12-24.393,3.775-57.222,1.561-75.22-5.887-14.755-9.58 4.003-22.518 15.699-21.586zm60.177-399.647c4.763,6.037 10.715,13.689 11.773,20.931-3.324-3.67-4.065-8.435-6.54-12.427-3.6-5.805-9.841-9.079-13.083-15.044-7.99-1.964-14.286-4.745-23.547-4.579-24.347.436-38.979,15.52-47.094,31.396-1.641,3.209-3.001,6.828-4.579,10.466-3.857,8.894-15.302,22.065-4.579,28.126 2.962-.812 7.894.956 11.773,0-2.943-1.636-8.411-.746-9.157-4.579 9.276.746 18.571,4.408 29.434,5.232 7.001.531 14.392-.35 21.584,0 20.657,1.005 44.949,1.475 61.486-6.541 3.656-5.921.267-13.474-2.617-18.314-.4,3.654 3.771,9.598-.654,12.428-.764-.981-1.889-1.6-1.962-3.27 .445-.881 1.991.57 2.616-1.309-2.938-16.903-14.347-25.334-19.622-39.9-2.193-.821-5.566-6.834-7.196-3.924 1.685-.455 1.402.596 1.964,1.308zm20.276,24.201c-3.25-3.945-4.199-10.191-8.503-13.082 2.326,4.439 5.033,11.968 8.503,13.082zm-86.994,39.899c4.253,5.123 15.312,3.439 22.894,5.233 1.454-.509 2.551-1.374 4.579-1.309 1.252.275 2.815.237 2.616,1.963 2.431.25 1.71-2.651 4.578-1.963h7.194c1.168-.14 1.547-.359 0-.654-9.889-1.886-21.081-.966-31.395-1.309-1.588-2.991-8.279-.878-10.466-3.27-.248-1.618 6.214.192 3.925-1.309-7.4-.429-15.765-.227-21.585-.654 3.959,3.02 11.002,2.955 17.66,3.272zm62.794,0c-8.941.435-19.621-.87-27.473.654 9.811-1.018 19.898,2.167 27.473-.654zm-74.567,2.617c9.585,2.996 23.295,4.402 35.321,5.233-13.218-1.608-24.478-5.175-37.283-7.195-.215,2.163 1.19,1.72 1.962,1.962zm7.849,5.887c2.001.475 1.924-1.128 3.924-.654 3.058.867 6.673,1.176 9.812,1.962-3.829-2.058-9.085-2.689-15.044-2.617-1.194-.177-3.667-2.354-4.579-.654 1.903.715 4.621.613 5.887,1.963zm45.133,0c7.475,1.417 16.992-.324 23.546-1.962-7.514.988-16.193.814-23.546,1.962zm18.314,3.27c3.286-.55 12.158-2.055 11.119-2.616-3.042.743-12.369.211-11.119,2.616zm-45.786-1.308c3.256.112 5.812,1.183 9.812.654 5.905-.78-11.523-2.079-11.12-.654 .014.052 1.193-.004 1.308,0zm-11.12,5.232c18.207,3.896 40.992,4.194 60.177,1.962-20.1-1.485-42.854-.316-61.485-3.27 .074.799.195,1.55 1.308,1.308zm62.138,1.309c4.721-1.748 10.919,1.824 13.083-1.962-3.964-1.402-9.668.677-13.083,1.962zm-67.37,49.711c18.671,3.722 54.644,8.356 71.949,0-14.993,1.527-34.54,2.391-51.673,1.308-7.487-.473-17.422-1.477-17.661-6.541 14.901,3.325 33.406,3.595 50.366,2.617-.979-.112-2.414.233-2.617-.654-5.19.456-12.71-.348-16.352-.654-12.274-1.033-26.475,1.428-31.397-6.541 7.285,3.268 16.178,2.213 24.856,2.617 14.202.66 29.588,4.117 41.861-1.962-9.691.945-19.91,1.843-31.396,1.308-12.791-.595-30.959-.545-34.667-6.541 18.703,2.175 34.288,3.999 53.634,3.271 5.014-3.709 16.632-.812 18.971-7.195-2.581-1.023-7.734.371-9.813,1.962 1.63.62 3.948-2.335 3.926.654-3.618.525-7.843.442-11.12,1.308-.57-.955-.519-2.533-2.615-1.962-9.927-.895-21.366-.096-33.359-.654-6.124-.285-18.203-.201-18.315-5.233 15.011,2.66 36.917,3.553 51.674,2.616 2.604.354-.706-2.316 2.615-1.962 6.886-.054 11.606-1.27 17.008-1.309 1.932-6.789 1.327-16.115 2.614-23.547-6.646,2.295-16.777,4.584-24.199,3.924 2.41-1.296 7.166-.246 9.156-1.962-23.78-.203-48.771.805-66.062-5.887 3.234,14.491 5.542,34.425 2.616,51.019zm64.1-3.271c3.27-.654 7.291-.558 9.157-2.617-2.308-.751-7.674.432-9.157,2.617zm9.812,9.157c1.914.171 2.009-1.479 3.924-1.309-.23-1.95-.378-3.982-1.961-4.578 .132,3.116-3.584,3.104-1.963,5.887zm-75.221,2.617c2.543.098 5.919,2.769 8.503.653-2.766-.94-7.001-.412-7.195-3.924 1.805-.227 4.593,1.878 5.887,0-3.085-.186-3.867-2.673-6.541-3.27 .512,2.91-.871,3.925-.654,6.541zm71.949-2.617c-18.777,4.673-43.021-.579-62.137.654 20.086-.145 47.468,6.234 62.137-.654zm-37.282,6.541c9.835.442 22.934,2.474 33.359,1.308 3.826-.428 8.077-1.537 10.464-3.925h-1.307c-11.708,3.591-29.581,2.129-42.516,2.617zm-17.661,4.579c14.614,1.998 28.62,2.719 43.169,1.962 9.091-.473 17.693-.854 22.239-5.233-10.015,3.245-22.332,3.89-35.974,3.271-15.762-.716-36.918-3.397-48.403-6.541 3.431,5.414 10.302,5.355 18.969,6.541zm73.912,153.711c15.267-1.854 29.858.451 41.862-5.888 3.715,2.056 6.861-2.566 8.503,0-4.945.723-5.062,6.276-9.812,7.195-.695,2.439 2.453,1.035 1.962,3.271-1.129,1.05-4.043.315-4.579,1.961 1.918.045 2.43,1.495 3.271,2.617-1.867.967-4.329,1.339-5.887,2.616 8.266-.584 10.278-5.16 15.044-12.428 9.561-14.579 19.084-33.948 20.931-54.29 .857-9.447-1.77-16.528-2.617-23.546-.941-7.8-4.103-12.39-5.231-18.315-.918-4.815-1.929-6.848-3.925-10.466-5.347-9.688-13.668-15.489-18.969-23.547-7.574-4.417-15.458-8.524-21.585-14.39-8.648-2.252-14.894-6.909-22.893-9.812-7.531,4.766-18.067,6.82-28.125,7.195-20.936.781-45.087-1.7-63.448-7.195-1.847.552-1.802,2.995-3.924,3.271-7.562,1.917-15.225,5.44-20.931,8.503-6.85,3.676-16.465,6.187-18.969,13.082 2.313.576 3.37-1.68 3.924.654-.044,1.917-1.495,2.429-2.616,3.271-7.792-1.488-10.733-3.041-17.006-7.195-3.267-2.163-7.435-4.609-9.812-6.541-.484-.393-.538-1.878-1.308-2.616-2.172-2.079-4.045-2.704-4.579-5.887-3.721-1.269-4.711-4.523-8.503-4.579-5.314-.077-15.1,8.581-13.736,16.353 2.384,4.494 9.027-.519 8.503,3.924 .861-1.319 2.147-2.213 3.924-2.617 .381,3.023-4.361,4.327-3.27,5.887 1.186-.814 4.047-3.316 5.232-1.962-.64,2.412-2.864,3.24-3.925,5.232 3.829-3.298 5.461-2.093 9.158-3.925-.897,2.641 1.172,2.316 1.962,3.271-1.171,2.1-2.647,3.894-4.579,5.233 2.015,1.116 2.929-4.464 6.541-3.924 .892,3.086.819,3.793 2.616,3.924 .571,1.94-2.794,3.227-1.308,3.924 .664-.914 3.024-3.447 3.924-1.962-1.89,3.569-7.732,6.648-8.503,9.158 5.237-1.958 7.701-6.688 11.773-9.812-.197,2.672.906-.11 2.617.654-1.666,3.18.217,6.052 0,9.158 1.834-3.818 1.256.854 3.924-.654 .505,1.671-2.56,3.007-.654,3.924 1.489-1.912 1.235.833.654,1.963 4.122-.073 1.813,2.677 4.579,3.27-.746,2.941-6.352,7.88-1.308,3.924 2.155-1.782 4.533-6.787 6.541-6.541-4.389,7.847-10.808,14.278-17.661,19.623-2.896,2.258-7.991,3.258-8.503,7.849 8.483-3.944 14.794-10.061 20.276-17.006 1.427-.416 2.081,1.854 1.963-.654 6.515-9.4 14.307-17.524 15.697-32.05 3.578,1.787 1.904,7.441 1.309,9.812-1.425,5.673-7.153,11.162-7.849,16.352-9.612,10.523-17.089,26.412-33.358,28.126 4.707,2.302 11.61-1.43 15.697-4.579 4.195-3.231 9.456-9.902 14.391-16.352 7.915-10.344 17.913-20.503 14.39-34.667-1.446-1.606-3.752-2.354-5.887-3.27 8.77-5.585 10.352,7.153 9.811,11.773-.325,2.775-2.747,6.769-4.578,10.465-3.19,6.441-5.221,10.785-9.157,15.698-3.568,4.453-6.104,7.991-9.812,11.773-6.79,6.928-17.212,16.848-28.126,12.429-3.977,24.602 5.726,47.294 16.353,64.1 2.488,3.936 6.178,10.371 8.503,11.773 2.959,1.785 7.916,1.794 11.773,2.617 2.562.546 6.08.39 7.849,2.616-5.96-.363-10.286-2.36-16.352-2.616 1.667,2.323 3.134,6.852 7.849,8.503 3.571,1.25 7.688.705 10.465,1.308 1.779.386 5.802-.543 5.232,2.617-4.379-.645-10.324-3.184-15.044-1.309 4.3,4.999 13.379,2.005 18.969,7.194 23.811,1.555 48.394,4.836 73.912,2.617 .412,1.114 1.977,1.076 2.615,1.962 6.785-1.064 18.194,2.496 20.933-2.616-30.107-1.382-66.148-1.554-96.152-4.579-3.725-.375-7.783-1.264-11.12-2.617 24.571,1.186 57.576,4.883 86.339,3.926 1.889,2.717 12.317,1.896 18.97,1.962 1.261-.266.516-2.535 2.615-1.962 3.891-.389 7.154.124 10.466,0 4.195-.157 8.985.002 13.082-1.963-12.681-1.767-26.177,2.717-37.937-.654 17.328-.767 34.771-1.42 50.364-3.924 2.234.524 3.733-.974.654-.654-21.138-1.283-38.504.538-58.867,1.309-1.08.01-.367,1.814-1.309,1.961-14.083,1.918-29.109-.015-43.17-.652-12.624-.574-24.931-.523-35.321-3.925 20.672.204 47.077,5.791 69.986,3.925 4.647-.38 7.798-1.197 1.963-1.963 18.251-1.371 37.076-2.17 53.636-5.233-6.911-.545-15.396-1.181-22.894,0-7.911,1.246-18.987.307-28.779.654-1.261.267-.517,2.536-2.617,1.963-17.619.721-35.671-.522-52.98-1.309-10.424-.473-22.116.785-32.05-.654-1.632-.236-4.863.031-5.233-2.615 26.983,2.449 56.351,2.517 85.032,3.27 .477-1.485 2.765-1.158 3.923-1.963 18.602-.303 34.81.504 51.021-2.615-1.218-.09-2.187-.43-2.616-1.309 3.289-1.725 10.988.96 11.773-3.271-5.543.145-13.395.668-14.391,3.271-3.888-2.312-9.223-.161-13.736,0-9.726.348-19.718-.293-28.125-.653 15.702-1.417 30.015-.183 44.479-2.617 1.26-.265.517-2.535 2.616-1.961 7.953-1.206 18.595.28 24.854-2.617-5.901-.085-15.956,2.648-19.622-1.309-4.393,1.927-11.737,3.483-18.314,3.926-4.161.278-10.092.855-11.774-1.309 10.011,1.207 19.43-2.215 28.131-3.27zm-169.408-83.724c-1.22.817-4.802.443-3.27,3.271 6.059-3.537 14.179-8.491 16.352-13.736-2.949,4.046-8.789,7.588-13.082,10.465zm192.956,88.303c-4.993.565-10.711-.518-14.391,1.961 8.188-.97 18.386.071 24.202-3.27-3.191-.439-6.35.915-9.811,1.309zm-20.931,13.081c5.75.009 11.605-1.594 15.697-2.617 1.623-.405 6.796-.156 3.925-1.961-5.853,2.213-14.42,1.712-19.622,4.578zm15.697,6.54c8.091.993 18.949-4.072 19.622-10.466-5.016,5.013-11.93,8.128-19.622,10.466zm-126.238,8.504c11.894.54 29.136,2.635 33.358,0-18.616-1.656-37.15-1.407-52.327-5.233 .138-.79.726-.401 1.308,0 .254-2.651-4.076-.72-5.887-1.308 3.689,7.45 12.806,6.052 23.548,6.541zm125.584-5.888c-7.843,1.111-17.914,2.213-26.816,2.617-3.868.176-8.207-1.188-11.12,1.309 13.036,1.166 27.238-.185 39.899-3.926h-1.963zm-84.376,5.888c-1.758.24-7.962-.601-6.541.654 5.033-.489 12.011.493 4.579,1.963 21.453,1.698 43.188,2.659 65.409,0h3.924c-6.736-2.221-16.371-.356-24.202,0-16.66.756-28.719-1.208-40.552-1.309 2.201-1.941 8.918.632 11.119-1.309-5.146-1.228-6.829.15-13.736.001zm-41.208,5.232c3.784.35 2.267-1.167-.654-.654-3.568-2.324-12.054-3.199-15.698-3.27 3.383,5.938 10.199,2.55 16.352,3.924zm0-3.269c-.791.137-.402.725 0,1.307 22.667,4.081 56.123,5.684 78.49,4.579 5.22-.258 11.289-.104 15.043-1.962-31.62.833-64.13-2.47-93.533-3.924zm95.496,5.886c3.356-.132 7.558.58 9.158-1.308-4.191.298-7.266-1.865-9.158,1.308zm-103.999-.655c-.79.139-.402.727 0,1.309 2.238,2.067 5.772,1.618 8.503,1.963 9.225,1.158 18.844,1.843 28.78,2.615 13.125,1.021 27.667,2.576 40.553,1.963 1.565-.074 3.137-1.177 4.579-1.309 16.383-1.506 31.546,2.417 44.478-3.924-41.299,4.343-87.639-.747-126.893-2.617zm20.93,8.503c12.674,1.076 25.725,2.435 37.937,3.271 1.914-1.14 5.056-1.05 7.195-1.963-19.692-1.675-41.229-1.503-59.522-4.579-.508.147-1.29.018-1.309.654 3.651,2.515 9.39,2.082 15.699,2.617zm5.888,4.578c4.484.657 9.759,3.676 13.082.654-8.772-2.037-18.357-3.104-26.818-2.615 3.82,1.66 8.979,1.267 13.736,1.961zm37.936.655c9.479.394 20.339,1.516 28.781-.654-8.357-.513-23.273-2.185-28.781.654zm-17.006,5.887c-2.214-3.501-7.81-2.107-12.427-2.616-6.032-.665-12.663-2.422-16.353-1.309 9.475,1.71 20.059,5.23 28.78,3.925zm28.78-1.963c-10.193-.928-22.028-3.696-32.705-1.962 9.468,1.713 23.634,4.007 32.705,1.962zm32.05-1.962c-6.702,1.066-15.067,3.495-22.239,1.962-2.927,1.434-8.437.285-11.119,1.963 13.048-.032 25.669-.494 35.321-3.925h-1.963zm-60.83,7.85c-1.866-1.403-14.344-2.411-18.968-1.309 5.947-.54 15.911,5.472 18.968,1.309zm9.157-1.309c2.204,2.822 8.926,1.942 11.773.654-2.699-1.689-7.982-1.348-11.773-.654zm35.322,0c2.116-.753-1.758-.74-2.617-.654h-9.811c-.509.146-1.291.019-1.309.654 4.085,1.931 8.728-.725 13.737,0zm-60.831,7.196c4.26-.386 9.793,2.363 11.774-1.309-7.59,1.696-10.607-4.646-15.698-3.27 .833,2.284 5.633,1.611 3.924,4.579zm50.365-5.233c-3.065.423-7.833-.856-9.811.654 2.226.863 14.8.037 9.811-.654zm-5.888,3.924c2.891.758 8.235,1.004 12.428.654 3.356-.28 8.213-.612 7.85-2.617-5.728,1.687-14.312.516-20.278,1.963zm1.309,1.963c-4.889-.749-13.045-2.296-15.697-1.309 2.331,2.911 11.571,2.372 15.697,1.309zm-24.855,3.925c3.091.337 7.071,3.581 9.81,0-6.438-2.068-18.69-1.8-25.508-1.309 5.258,1.587 10.643.755 15.698,1.309zm29.434,1.307c-4.827-.61-14.189-2.971-18.315,0h18.315zm-44.478.654c-.51.145-.76.549-.654,1.309 .144.511.547.761 1.308.654 17.865.748 39.975,3.063 56.905.654 1.683-.24 4.882-.045 5.888-1.963-18.029,3.79-44.305.656-63.447-.654zm2.617,10.466c.073.798.195,1.549 1.308,1.308 11.222.956 28.185,3.767 37.938,0-11.894-1.21-29.198-.429-39.246-1.308zm52.979,1.962c2.692-.143 5.566-.104 6.542-1.962-2.488-1.849-4.898.903-6.542,1.962zm-39.244,3.924c5.719-.142 9.73,1.653 15.044-.653-4.425.38-13.865-.797-15.044.653zm5.232,3.925c-4.935-.523-12.31-2.07-17.006-.653 5.706-.248 11.803,2.576 17.006.653zm-18.967,2.616c4.78-.35 12.312,3.788 14.39,0-4.285.062-11.964-2.451-14.39,0zm38.59,0c-3.281.425-8.271-.856-10.466.654 3.888.416 7.191.839 10.466-.654zm-33.359,3.925c7.1.827 14.955,3.491 20.931.654 1.771,1.987 6.036,1.438 9.157,1.309 4.011-.169 8.942-.64 10.465-2.617-16.323.901-35.982,1.244-51.672-1.962 2.312,2.465 6.989,2.135 11.119,2.616zm9.812,3.27c-7.097-1.069-18.788-3.314-24.202-3.27-2.46.021-.57,1.08 0,1.309 6.219,2.487 20.098,2.732 31.395,3.924-.613-3.193-4.799-1.601-7.193-1.963zm-30.088-1.307c-.509.144-.76.547-.653,1.307 11.139.854 22.581,4.889 33.357,3.925-10.471-1.761-23.312-4.566-32.704-5.232zm40.553,1.961c6.209,1.193 15.92.817 20.931-1.309-5.949,1.464-15.132-.304-20.931,1.309zm-45.132,1.963c1.831,6.325 9.846,4.975 13.736,7.849 .864-.008.598-1.146 1.309-1.309 5.232,3.027 10.033,1.744 14.39,4.579 1.247-.279 1.183-1.869 3.271-1.309 1.03.06.512,1.669 1.962,1.309 1.508.2.726-1.89 1.962-1.962 4.113,3.136 11.182-.611 17.66,1.308-.08-3.351 5.494-1.046 5.887-3.925-22.925.685-42.888-1.59-60.177-6.54zm68.025,4.579c2.314-.26 6.776.329 7.85-2.617-19.896,2.39-40.733,1.518-57.56-.654-2.712-.35-6.056-.892-8.503-1.308-3.19-.544-6.815-2.992-7.849-.654h1.308c17.015,4.971 44.47,7.504 64.754,5.233zm-3.923-4.579c-4.253.29-17.298.716-9.158,1.308 6.96.506 12.64-.618 18.315-1.962-2.802-.512-6.189.452-9.157.654zm-3.926,9.81c4.43-.148 8.957-.2 11.774-1.962-4.578.001-9.522-.363-11.774,1.962z" fill-rule="evenodd"/>
 <path d="m124.277,21.398c-2.487,1.438-5.397,2.452-7.195,4.579 1.336-3.347 7.322-7.545 12.428-9.158 16.874-5.327 37.498.872 46.44,12.428 .99,1.279.272,3.292 2.617,3.924 .977,1.992-.215,2.543.653,3.925 8.243,4.132 15.354,19.479 6.54,27.471-12.816-.328-30.179,2.385-43.17,1.963-2.048-.067-3.982-1.211-5.886-1.309-10.778-.551-23.395.713-32.704-4.579-.753-.772-.741-2.312-.654-3.924-1.426,1.682-.71,6.787.654,7.849-3.131,2.051-2.262-6.087-5.233-4.578 .196-3.947 1.501-6.784 2.616-9.812 2.716.866 2.358,1.404 1.962,4.579 2.842-2.733 1.517-6.559 2.616-9.811 3.281-9.705 10.327-16.84 17.661-22.239 .125-.53.657-.652.655-1.308zm59.521,35.975c.697.028 1.663-.308.654-.654-19.278-3.967-47.053-1.061-65.408,1.309-3.349.432-7.64,2.384-10.465,0 24.029-3.798 54.525-9.875 78.49-2.617 .754-4.647-2.49-8.659-5.231-12.428-2.703-3.715-4.916-7.863-7.196-11.119-4.249-6.072-14.867-12.14-23.546-13.082-21.734-2.36-32.836,11.812-39.9,25.509-2.49,4.829-6.076,11.052-3.271,16.352 10.708,2.439 20.04.168 30.087,0 1.568.26-.362-2.979 1.963-1.962 18.815-.613 27.506,1.576 44.478,0-7.4-1.537-17.577-.301-24.2-2.616 8.471-.381 18.378.469 23.545,1.308z" fill-rule="evenodd"/>
 <path d="m219.773,187.536c-.554-1.409-2.869-1.056-3.925-1.962 1.342-3.698-5.447-4.453-9.812-4.579 4.091-3.367-3.874-2.5-1.961-5.233h-4.579c-.277-1.367.447-1.731.653-2.616h-3.271c-.385-5.066-8.378-2.522-9.156-7.195 8.562,1.468 13.76,6.299 21.584,8.503-.713,5.51 6.169,3.425 6.541,7.849 2.249-.287 3.666.258 5.233.654 .184,1.056-.619,1.126-.654,1.962 2.49-.447 4.633,1.177 3.271,2.617h4.578c.042,3.313-2.883,3.658-5.887,3.924 .23-.859 1.151-1.028 1.309-1.962-2.297-1.62-8.356.753-11.119,0 1.781-1.27 5.697-.408 7.195-1.962z" fill-rule="evenodd"/>
 <path d="m232.201,205.851c.6,2.452 3.432,2.673 5.232,3.924 3.198-2.043 7.466-6.478 11.773-5.233 1.185,1.825-1.065,4.735-4.579,3.924-3.649,6.935-13.046,4.124-17.006-.654-5.73,2.474-8.114,8.54-15.043,6.541-2.995-.865-3.641-3.965-7.196-5.233-5.821-.576-7.81,6.372-13.081,7.195-4.921.769-9.529-4.187-14.391-3.924-5.497.296-6.576,7.065-13.736,5.887-3.67-.604-5.267-4.655-9.156-5.233-6.544-.972-7.994,3.353-11.772,6.542-6.289,1.858-10.104-3.055-14.391-5.233-7.518.854-10.237,7.446-17.661,5.233-3.138-.936-4.75-5.013-7.849-5.233-5.222-.372-6.853,7.126-14.39,5.887-4.128-.68-7.586-6.933-11.774-7.196-3.335-.209-6.962,5.299-10.465,3.271 1.982-4.288 5.082-7.461 10.465-7.195 5.789.287 9.117,8.83 14.39,7.195 4.625-1.433 6.519-7.579 14.39-5.886 3.428.736 5.61,5.87 9.158,5.886 3.97.019 8.354-8.109 15.698-6.541 4.32.922 4.327,6.639 11.12,5.232 2.954-.611 4.054-3.786 5.231-5.886 3.402.608 4.628-.967 7.195-.654 4.973.604 7.518,5.874 11.119,5.887 4.389.015 4.794-3.257 8.505-5.887 5.689-2.5 10.765,3.997 15.697,3.925 5.359-.078 8.485-8.226 16.352-7.195 4.246.556 6.076,6.175 11.773,5.233 2.916-.483 3.752-4.153 6.542-5.887 2.926-1.819 5.492-1.07 7.849-2.617 1.878-.824 2.791-5.072 5.887-2.616-1.351,3.229-5.124,4.034-9.157,4.578-.228,3.902 9.66-.976 3.271,1.963z" fill-rule="evenodd"/>
 <path d="m251.17,209.775c1.804,2.487-2.473,4.481-4.579,5.232 1.807,1.94 4.712-1.262 5.887,1.309 .306,2.05-1.646,1.844-2.616,2.617-.2,1.508 1.89.726 1.963,1.961 .306,2.052-1.645,1.845-2.617,2.617 .285.804.838,1.343 1.963,1.308 .066,2.03-2.059,1.867-1.309,4.578-3.406,1.392-6.404,3.19-11.119,3.271 1.721-1.549 4.389-2.153 7.194-2.617 .66-1.967-1.456-1.159-2.615-1.307 .19-1.99 3.458-.902 3.924-2.617-3.135-2.021-7.069.762-11.12,0-.462-2.426 1.118-2.807.654-5.233 4.651-.364 8.464-1.565 11.773-3.27-2.988-2.33-5.702-1.554-10.465-1.308 4.634-1.907 10.807-2.276 13.082-6.541z" fill-rule="evenodd"/>
 <path d="m26.817,258.833c8.313,6.439 24.547,8.833 37.937,10.464 46.727,5.694 100.226,2.534 148.477-1.961 12.02-1.12 24.895-.921 35.976-3.271 1.382-.293 2.454-1.617 3.925-1.962 1.386-.323 2.632.352 3.924,0 2.415-.657 4.681-2.953 7.196-1.963-.412,4.386-6.175,3.42-7.196,7.196-12.811,4.412-27.523,6.924-43.824,7.849 7.526-2.505 17.815-2.243 26.164-3.925-8.698-1.718-19.856-.236-28.125.654-1.336,2.153-.987,5.989-3.271,7.194-5.312.733-4.912-4.245-7.195-6.54-26.168,2.309-57.74,4.362-88.302,3.925-7.413-.107-15.141-1.565-22.893-1.963-8.41-.432-16.847-.021-24.202-1.309-2.401-.419-4.29-1.691-6.541-1.962-12.35-1.485-24.45-1.629-32.051-9.812 .001-.871.001-1.743.001-2.614z" fill-rule="evenodd"/>
 <path d="m252.478,281.724h-1.308c2.575,1.974 4.846-1.296 7.849,0-9.515,7.966-24.252,9.413-40.554,9.157 2.261-3.414 7.361-1.647 11.12-1.961 7.561-.633 15.36-2.08 18.968-5.888-7.712,1.664-15.543,3.209-25.509,2.616 .926-2.021 4.465-1.685 6.541-1.962 6.772-.904 16.016-.747 20.276-4.579-7.371,1.587-17.483,1.175-26.817,1.963-4.319.365-8.138,2.279-11.773,2.616-1.287.12-3.312-.654-4.579-.654-3.467-.001-6.865,1.245-10.466,1.309-11.356.198-23.588-.635-35.974,0-9.095.467-17.92,1.129-26.818,1.308-17.276.348-39.391-.928-62.139-1.962-10.699-.485-23.804-1.15-32.704-4.579-2.23-.859-4.799-2.584-7.195-3.924-2.091-1.169-6.451-1.546-5.887-5.233 3.799.729 6.559,3.31 10.465,4.579 10.476,3.404 30.872,5.941 46.44,6.541 21.16.815 39.554,1.739 63.446.653 29.816-1.354 61.868-.263 87.648-5.231 .305-1.397-.935-1.246-1.963-1.309 13.271-.683 24.841-3.067 33.359-8.503-.262,2.485-3.01,2.482-1.309,5.232-2.668,1.038-5.534,1.879-7.195,3.925-.109,1.417 2.319.296 3.271.654-.621,3.521-4.588,3.696-7.193,5.232z" fill-rule="evenodd"/>
</svg>
